<mxfile host="app.diagrams.net" modified="2021-07-14T15:22:12.578Z" agent="5.0 (Windows)" etag="ay0epxfAxwNXn3vo45cG" version="14.8.6" type="github">
  <diagram id="R2lEEEUBdFMjLlhIrx00" name="Page-1">
    <mxGraphModel dx="782" dy="364" grid="1" gridSize="10" guides="1" tooltips="1" connect="1" arrows="1" fold="1" page="1" pageScale="1" pageWidth="850" pageHeight="1100" math="0" shadow="0" extFonts="Permanent Marker^https://fonts.googleapis.com/css?family=Permanent+Marker">
      <root>
        <mxCell id="0" />
        <mxCell id="1" parent="0" />
        <mxCell id="M1DEUQlgbohIB15R42V5-2" value="" style="shape=ext;double=1;rounded=0;whiteSpace=wrap;html=1;" vertex="1" parent="1">
          <mxGeometry x="15" y="50" width="120" height="250" as="geometry" />
        </mxCell>
        <mxCell id="M1DEUQlgbohIB15R42V5-3" value="" style="shape=ext;double=1;rounded=0;whiteSpace=wrap;html=1;" vertex="1" parent="1">
          <mxGeometry x="220" y="50" width="120" height="250" as="geometry" />
        </mxCell>
        <mxCell id="M1DEUQlgbohIB15R42V5-4" value="" style="shape=ext;double=1;rounded=0;whiteSpace=wrap;html=1;" vertex="1" parent="1">
          <mxGeometry x="430" y="51" width="120" height="250" as="geometry" />
        </mxCell>
        <mxCell id="M1DEUQlgbohIB15R42V5-5" value="" style="shape=ext;double=1;rounded=0;whiteSpace=wrap;html=1;" vertex="1" parent="1">
          <mxGeometry x="630" y="50" width="120" height="250" as="geometry" />
        </mxCell>
        <mxCell id="M1DEUQlgbohIB15R42V5-7" value="Users" style="text;html=1;strokeColor=none;fillColor=none;align=center;verticalAlign=middle;whiteSpace=wrap;rounded=0;fontColor=none;fontStyle=1" vertex="1" parent="1">
          <mxGeometry x="55" y="51" width="40" height="20" as="geometry" />
        </mxCell>
        <mxCell id="M1DEUQlgbohIB15R42V5-9" value="" style="whiteSpace=wrap;html=1;aspect=fixed;fontColor=none;" vertex="1" parent="1">
          <mxGeometry x="36" y="196" width="75" height="75" as="geometry" />
        </mxCell>
        <mxCell id="M1DEUQlgbohIB15R42V5-10" value="&lt;b&gt;Client&lt;/b&gt;" style="text;html=1;strokeColor=none;fillColor=none;align=center;verticalAlign=middle;whiteSpace=wrap;rounded=0;fontColor=none;" vertex="1" parent="1">
          <mxGeometry x="50" y="206" width="40" height="20" as="geometry" />
        </mxCell>
        <mxCell id="M1DEUQlgbohIB15R42V5-11" value="Web browser" style="text;html=1;strokeColor=none;fillColor=none;align=center;verticalAlign=middle;whiteSpace=wrap;rounded=0;fontColor=none;" vertex="1" parent="1">
          <mxGeometry x="35" y="236" width="80" height="20" as="geometry" />
        </mxCell>
        <mxCell id="M1DEUQlgbohIB15R42V5-12" value="" style="endArrow=classic;startArrow=classic;html=1;fontColor=none;" edge="1" parent="1">
          <mxGeometry width="50" height="50" relative="1" as="geometry">
            <mxPoint x="75" y="193" as="sourcePoint" />
            <mxPoint x="75" y="134" as="targetPoint" />
          </mxGeometry>
        </mxCell>
        <mxCell id="M1DEUQlgbohIB15R42V5-14" value="Presentation" style="text;html=1;strokeColor=none;fillColor=none;align=center;verticalAlign=middle;whiteSpace=wrap;rounded=0;fontColor=none;fontStyle=1" vertex="1" parent="1">
          <mxGeometry x="233" y="51" width="90" height="20" as="geometry" />
        </mxCell>
        <mxCell id="M1DEUQlgbohIB15R42V5-17" value="" style="rounded=0;whiteSpace=wrap;html=1;fontColor=none;" vertex="1" parent="1">
          <mxGeometry x="240" y="86" width="80" height="60" as="geometry" />
        </mxCell>
        <mxCell id="M1DEUQlgbohIB15R42V5-18" value="Controller / Page Model" style="text;html=1;strokeColor=none;fillColor=none;align=center;verticalAlign=middle;whiteSpace=wrap;rounded=0;fontColor=none;" vertex="1" parent="1">
          <mxGeometry x="244" y="101" width="70" height="30" as="geometry" />
        </mxCell>
        <mxCell id="M1DEUQlgbohIB15R42V5-19" value="" style="rounded=0;whiteSpace=wrap;html=1;fontColor=none;" vertex="1" parent="1">
          <mxGeometry x="240" y="196" width="80" height="60" as="geometry" />
        </mxCell>
        <mxCell id="M1DEUQlgbohIB15R42V5-20" value="View" style="text;html=1;strokeColor=none;fillColor=none;align=center;verticalAlign=middle;whiteSpace=wrap;rounded=0;fontColor=none;fontStyle=1" vertex="1" parent="1">
          <mxGeometry x="258" y="206" width="40" height="20" as="geometry" />
        </mxCell>
        <mxCell id="M1DEUQlgbohIB15R42V5-21" value="Razor Pages" style="text;html=1;strokeColor=none;fillColor=none;align=center;verticalAlign=middle;whiteSpace=wrap;rounded=0;fontColor=none;" vertex="1" parent="1">
          <mxGeometry x="244" y="226" width="76" height="20" as="geometry" />
        </mxCell>
        <mxCell id="M1DEUQlgbohIB15R42V5-22" value="Business Logic" style="text;html=1;strokeColor=none;fillColor=none;align=center;verticalAlign=middle;whiteSpace=wrap;rounded=0;fontColor=none;fontStyle=1" vertex="1" parent="1">
          <mxGeometry x="440" y="52" width="100" height="20" as="geometry" />
        </mxCell>
        <mxCell id="M1DEUQlgbohIB15R42V5-23" value="" style="rounded=0;whiteSpace=wrap;html=1;fontColor=none;" vertex="1" parent="1">
          <mxGeometry x="450" y="86" width="80" height="60" as="geometry" />
        </mxCell>
        <mxCell id="M1DEUQlgbohIB15R42V5-24" value="Business Library" style="text;html=1;strokeColor=none;fillColor=none;align=center;verticalAlign=middle;whiteSpace=wrap;rounded=0;fontColor=none;" vertex="1" parent="1">
          <mxGeometry x="455" y="96" width="70" height="30" as="geometry" />
        </mxCell>
        <mxCell id="M1DEUQlgbohIB15R42V5-25" value="" style="rounded=0;whiteSpace=wrap;html=1;fontColor=none;" vertex="1" parent="1">
          <mxGeometry x="450" y="196" width="80" height="60" as="geometry" />
        </mxCell>
        <mxCell id="M1DEUQlgbohIB15R42V5-27" value="Model Library" style="text;html=1;strokeColor=none;fillColor=none;align=center;verticalAlign=middle;whiteSpace=wrap;rounded=0;fontColor=none;fontStyle=0" vertex="1" parent="1">
          <mxGeometry x="470" y="213" width="40" height="20" as="geometry" />
        </mxCell>
        <mxCell id="M1DEUQlgbohIB15R42V5-28" value="Data Access" style="text;html=1;strokeColor=none;fillColor=none;align=center;verticalAlign=middle;whiteSpace=wrap;rounded=0;fontColor=none;fontStyle=1" vertex="1" parent="1">
          <mxGeometry x="640" y="50" width="100" height="20" as="geometry" />
        </mxCell>
        <mxCell id="M1DEUQlgbohIB15R42V5-29" value="" style="shape=datastore;whiteSpace=wrap;html=1;fontColor=none;" vertex="1" parent="1">
          <mxGeometry x="660" y="126" width="60" height="60" as="geometry" />
        </mxCell>
        <mxCell id="M1DEUQlgbohIB15R42V5-30" value="" style="shape=actor;whiteSpace=wrap;html=1;fontColor=none;" vertex="1" parent="1">
          <mxGeometry x="55" y="72" width="40" height="60" as="geometry" />
        </mxCell>
        <mxCell id="M1DEUQlgbohIB15R42V5-32" value="SQL Server" style="text;html=1;strokeColor=none;fillColor=none;align=center;verticalAlign=middle;whiteSpace=wrap;rounded=0;fontColor=none;" vertex="1" parent="1">
          <mxGeometry x="670" y="154" width="40" height="20" as="geometry" />
        </mxCell>
        <mxCell id="M1DEUQlgbohIB15R42V5-33" value="" style="endArrow=classic;html=1;fontColor=none;entryX=-0.025;entryY=0.867;entryDx=0;entryDy=0;entryPerimeter=0;" edge="1" parent="1" source="M1DEUQlgbohIB15R42V5-9" target="M1DEUQlgbohIB15R42V5-17">
          <mxGeometry width="50" height="50" relative="1" as="geometry">
            <mxPoint x="140" y="220" as="sourcePoint" />
            <mxPoint x="420" y="130" as="targetPoint" />
          </mxGeometry>
        </mxCell>
        <mxCell id="M1DEUQlgbohIB15R42V5-34" value="" style="endArrow=classic;html=1;fontColor=none;" edge="1" parent="1">
          <mxGeometry width="50" height="50" relative="1" as="geometry">
            <mxPoint x="323" y="111" as="sourcePoint" />
            <mxPoint x="446" y="111" as="targetPoint" />
          </mxGeometry>
        </mxCell>
        <mxCell id="M1DEUQlgbohIB15R42V5-35" value="" style="endArrow=classic;startArrow=classic;html=1;fontColor=none;exitX=0;exitY=0.5;exitDx=0;exitDy=0;entryX=1;entryY=0.5;entryDx=0;entryDy=0;" edge="1" parent="1" source="M1DEUQlgbohIB15R42V5-29" target="M1DEUQlgbohIB15R42V5-23">
          <mxGeometry width="50" height="50" relative="1" as="geometry">
            <mxPoint x="590" y="160" as="sourcePoint" />
            <mxPoint x="590" y="101" as="targetPoint" />
          </mxGeometry>
        </mxCell>
        <mxCell id="M1DEUQlgbohIB15R42V5-37" value="" style="endArrow=classic;html=1;fontColor=none;exitX=0.5;exitY=1;exitDx=0;exitDy=0;" edge="1" parent="1" source="M1DEUQlgbohIB15R42V5-23">
          <mxGeometry width="50" height="50" relative="1" as="geometry">
            <mxPoint x="540" y="130" as="sourcePoint" />
            <mxPoint x="490" y="191" as="targetPoint" />
          </mxGeometry>
        </mxCell>
        <mxCell id="M1DEUQlgbohIB15R42V5-38" value="" style="endArrow=classic;html=1;fontColor=none;exitX=0.5;exitY=1;exitDx=0;exitDy=0;" edge="1" parent="1">
          <mxGeometry width="50" height="50" relative="1" as="geometry">
            <mxPoint x="277.5" y="146" as="sourcePoint" />
            <mxPoint x="277.5" y="191" as="targetPoint" />
          </mxGeometry>
        </mxCell>
        <mxCell id="M1DEUQlgbohIB15R42V5-39" value="" style="endArrow=classic;html=1;fontColor=none;entryX=1;entryY=0.4;entryDx=0;entryDy=0;entryPerimeter=0;" edge="1" parent="1" target="M1DEUQlgbohIB15R42V5-19">
          <mxGeometry width="50" height="50" relative="1" as="geometry">
            <mxPoint x="450" y="220" as="sourcePoint" />
            <mxPoint x="340" y="221" as="targetPoint" />
            <Array as="points">
              <mxPoint x="360" y="221" />
            </Array>
          </mxGeometry>
        </mxCell>
        <mxCell id="M1DEUQlgbohIB15R42V5-40" value="" style="endArrow=classic;html=1;fontColor=none;entryX=1;entryY=0.4;entryDx=0;entryDy=0;entryPerimeter=0;" edge="1" parent="1">
          <mxGeometry width="50" height="50" relative="1" as="geometry">
            <mxPoint x="241" y="222.5" as="sourcePoint" />
            <mxPoint x="111" y="222.5" as="targetPoint" />
            <Array as="points">
              <mxPoint x="151" y="223.5" />
            </Array>
          </mxGeometry>
        </mxCell>
      </root>
    </mxGraphModel>
  </diagram>
</mxfile>
